<svg xmlns="http://www.w3.org/2000/svg" viewBox="0 0 400 400" width="400" height="400" role="img" aria-label="أملور">
  <rect width="400" height="400" rx="36" fill="#f7e7e6"/>
  <circle cx="330" cy="70" r="90" fill="#f2d7d5"/>
  <ellipse cx="200" cy="300" rx="140" ry="12" fill="#000" opacity="0.06"/>
  
  <polygon points="70,110 110,80 340,80 300,110" fill="#d67e75"/>
  <polygon points="300,110 340,80 340,250 300,280" fill="#902b20"/>
  <rect x="70" y="110" width="230" height="170" fill="#ffffff"/>
  <rect x="70" y="110" width="230" height="30" fill="#C0392B"/>
  <rect x="70" y="262" width="230" height="18" fill="#C0392B"/>
  <text x="185" y="195" text-anchor="middle" font-family="Tahoma, 'Segoe UI', Arial, sans-serif" direction="rtl" font-size="30" font-weight="700" fill="#1d2b36">أملور</text>
  <text x="185" y="228" text-anchor="middle" font-family="'Segoe UI', Arial, sans-serif" font-size="15" fill="#4a5a66">Amlodipine</text>
  <text x="185" y="131" text-anchor="middle" font-family="'Segoe UI', Arial, sans-serif" font-size="14" font-weight="700" fill="#fff" letter-spacing="2">5 mg</text>
  <g transform="translate(40 250) rotate(-12)">
    <rect width="120" height="110" rx="10" fill="#e6eaee" stroke="#b8c1c9"/>
    <circle cx="38" cy="22" r="11" fill="#fff" stroke="#c9d1d8"/><line x1="30" y1="22" x2="46" y2="22" stroke="#d5dbe0"/><circle cx="82" cy="22" r="11" fill="#fff" stroke="#c9d1d8"/><line x1="74" y1="22" x2="90" y2="22" stroke="#d5dbe0"/><circle cx="38" cy="52" r="11" fill="#fff" stroke="#c9d1d8"/><line x1="30" y1="52" x2="46" y2="52" stroke="#d5dbe0"/><circle cx="82" cy="52" r="11" fill="#fff" stroke="#c9d1d8"/><line x1="74" y1="52" x2="90" y2="52" stroke="#d5dbe0"/><circle cx="38" cy="82" r="11" fill="#fff" stroke="#c9d1d8"/><line x1="30" y1="82" x2="46" y2="82" stroke="#d5dbe0"/><circle cx="82" cy="82" r="11" fill="#fff" stroke="#c9d1d8"/><line x1="74" y1="82" x2="90" y2="82" stroke="#d5dbe0"/>
  </g>
</svg>
