<svg xmlns="http://www.w3.org/2000/svg" viewBox="0 0 400 400" width="400" height="400" role="img" aria-label="فيتامين د">
  <rect width="400" height="400" rx="36" fill="#f9f4e0"/>
  <circle cx="330" cy="70" r="90" fill="#f4eccc"/>
  <ellipse cx="200" cy="300" rx="140" ry="12" fill="#000" opacity="0.06"/>
  
  <polygon points="70,110 110,80 340,80 300,110" fill="#dcc159"/>
  <polygon points="300,110 340,80 340,250 300,280" fill="#977800"/>
  <rect x="70" y="110" width="230" height="170" fill="#ffffff"/>
  <rect x="70" y="110" width="230" height="30" fill="#C9A000"/>
  <rect x="70" y="262" width="230" height="18" fill="#C9A000"/>
  <text x="185" y="195" text-anchor="middle" font-family="Tahoma, 'Segoe UI', Arial, sans-serif" direction="rtl" font-size="30" font-weight="700" fill="#1d2b36">فيتامين د</text>
  <text x="185" y="228" text-anchor="middle" font-family="'Segoe UI', Arial, sans-serif" font-size="15" fill="#4a5a66">Cholecalciferol</text>
  <text x="185" y="131" text-anchor="middle" font-family="'Segoe UI', Arial, sans-serif" font-size="14" font-weight="700" fill="#fff" letter-spacing="2">50,000 IU</text>
  <g transform="translate(40 250) rotate(-12)">
    <rect width="120" height="110" rx="10" fill="#e6eaee" stroke="#b8c1c9"/>
    <g transform="translate(38 22) rotate(-20)"><rect x="-16" y="-7" width="32" height="14" rx="7" fill="#C9A000"/><rect x="0" y="-7" width="16" height="14" rx="7" fill="#fff"/><rect x="0" y="-7" width="8" height="14" fill="#fff"/></g><g transform="translate(82 22) rotate(-20)"><rect x="-16" y="-7" width="32" height="14" rx="7" fill="#C9A000"/><rect x="0" y="-7" width="16" height="14" rx="7" fill="#fff"/><rect x="0" y="-7" width="8" height="14" fill="#fff"/></g><g transform="translate(38 52) rotate(-20)"><rect x="-16" y="-7" width="32" height="14" rx="7" fill="#C9A000"/><rect x="0" y="-7" width="16" height="14" rx="7" fill="#fff"/><rect x="0" y="-7" width="8" height="14" fill="#fff"/></g><g transform="translate(82 52) rotate(-20)"><rect x="-16" y="-7" width="32" height="14" rx="7" fill="#C9A000"/><rect x="0" y="-7" width="16" height="14" rx="7" fill="#fff"/><rect x="0" y="-7" width="8" height="14" fill="#fff"/></g><g transform="translate(38 82) rotate(-20)"><rect x="-16" y="-7" width="32" height="14" rx="7" fill="#C9A000"/><rect x="0" y="-7" width="16" height="14" rx="7" fill="#fff"/><rect x="0" y="-7" width="8" height="14" fill="#fff"/></g><g transform="translate(82 82) rotate(-20)"><rect x="-16" y="-7" width="32" height="14" rx="7" fill="#C9A000"/><rect x="0" y="-7" width="16" height="14" rx="7" fill="#fff"/><rect x="0" y="-7" width="8" height="14" fill="#fff"/></g>
  </g>
</svg>
